<svg width="59" height="47" viewBox="0 0 59 47" fill="none" xmlns="http://www.w3.org/2000/svg">
<g clip-path="url(#clip0_366_4)">
<path d="M3.5615 0.46807C2.60681 -0.284665 1.22068 -0.110251 0.467948 0.844437C-0.284787 1.79912 -0.110373 3.18526 0.844315 3.93799L55.1881 46.5317C56.1428 47.2845 57.5289 47.1101 58.2816 46.1554C59.0344 45.2007 58.8599 43.8146 57.9053 43.0618L48.2482 35.4978C51.8834 31.7708 54.3435 27.594 55.5828 24.629C55.8857 23.9038 55.8857 23.096 55.5828 22.3708C54.215 19.0937 51.3418 14.3202 47.0457 10.3362C42.7312 6.31553 36.792 2.93741 29.3748 2.93741C23.1142 2.93741 17.9002 5.35166 13.8336 8.51866L3.5615 0.46807ZM20.4797 13.7235C22.8205 11.5847 25.9508 10.2812 29.3748 10.2812C36.6726 10.2812 42.5935 16.2021 42.5935 23.4999C42.5935 25.7856 42.0152 27.9337 40.9963 29.8064L37.4529 27.0341C38.224 25.2624 38.426 23.2337 37.8935 21.2233C36.8746 17.4138 33.5056 14.8526 29.7603 14.6966C29.2279 14.6782 28.9158 15.2565 29.081 15.7706C29.2738 16.3581 29.384 16.9823 29.384 17.6341C29.384 18.5704 29.1637 19.4517 28.7781 20.2319L20.4888 13.7327L20.4797 13.7235ZM34.24 35.7915C32.7345 36.3882 31.0914 36.7187 29.3748 36.7187C22.0769 36.7187 16.156 30.7978 16.156 23.4999C16.156 22.8665 16.2019 22.2515 16.2845 21.6456L7.6281 14.8251C5.53514 17.5515 4.03885 20.2687 3.16678 22.3708C2.86385 23.096 2.86385 23.9038 3.16678 24.629C4.53455 27.9062 7.40779 32.6796 11.7039 36.6636C16.0183 40.6843 21.9576 44.0624 29.3748 44.0624C33.7627 44.0624 37.6273 42.8782 40.9595 41.079L34.24 35.7915Z" fill="black"/>
</g>
<defs>
<clipPath id="clip0_366_4">
<rect width="58.75" height="47" fill="white"/>
</clipPath>
</defs>
</svg>
