<svg width="132" height="34" viewBox="0 0 132 34" fill="none" xmlns="http://www.w3.org/2000/svg">
<path d="M25 29.576C21.9067 29.576 19.5173 28.8507 17.832 27.4C16.168 25.928 15.3467 23.7307 15.368 20.808H20.584C20.5627 22.024 20.9253 22.952 21.672 23.592C22.4187 24.232 23.464 24.552 24.808 24.552C25.9173 24.552 26.792 24.3707 27.432 24.008C28.072 23.6453 28.392 23.0907 28.392 22.344C28.392 21.7253 28.0613 21.2773 27.4 21C26.76 20.7227 26.12 20.5307 25.48 20.424C24.84 20.296 24.4453 20.2213 24.296 20.2C22.6533 19.88 21.2347 19.496 20.04 19.048C18.8453 18.5787 17.8427 17.8747 17.032 16.936C16.2213 15.9973 15.816 14.76 15.816 13.224C15.816 11.688 16.2213 10.3867 17.032 9.32C17.8427 8.232 18.92 7.42133 20.264 6.888C21.6293 6.35467 23.112 6.088 24.712 6.088C26.6533 6.088 28.328 6.45067 29.736 7.176C31.1653 7.90133 32.2853 9 33.096 10.472C33.5013 11.176 33.7467 11.8587 33.832 12.52C33.9173 13.16 33.96 13.7893 33.96 14.408H28.744C28.744 13.256 28.4347 12.4133 27.816 11.88C27.1973 11.3253 26.2373 11.048 24.936 11.048C23.8907 11.048 23.08 11.2293 22.504 11.592C21.928 11.9547 21.64 12.4453 21.64 13.064C21.64 13.7467 22.024 14.248 22.792 14.568C23.56 14.888 24.5307 15.176 25.704 15.432C27.624 15.816 29.1173 16.1893 30.184 16.552C31.272 16.8933 32.2107 17.512 33 18.408C33.7893 19.304 34.184 20.5627 34.184 22.184C34.184 23.72 33.7573 25.0427 32.904 26.152C32.0507 27.2613 30.92 28.1147 29.512 28.712C28.1253 29.288 26.6213 29.576 25 29.576ZM57.5195 6.728V7.912H49.1035V29H47.9515V7.912H39.5355V6.728H57.5195ZM63.223 6.728H64.407V20.488C64.407 21.896 64.759 23.1973 65.463 24.392C66.167 25.5867 67.1163 26.536 68.311 27.24C69.5057 27.944 70.807 28.296 72.215 28.296C73.623 28.296 74.9243 27.944 76.119 27.24C77.3137 26.536 78.263 25.5867 78.967 24.392C79.671 23.1973 80.023 21.896 80.023 20.488V6.728H81.207V20.488C81.207 22.1093 80.8017 23.6133 79.991 25C79.1803 26.3653 78.0817 27.4533 76.695 28.264C75.3297 29.0747 73.8363 29.48 72.215 29.48C70.5937 29.48 69.0897 29.0747 67.703 28.264C66.3377 27.4533 65.2497 26.3653 64.439 25C63.6283 23.6133 63.223 22.1093 63.223 20.488V6.728ZM95.6785 6.728C97.2998 6.728 98.7932 7.13333 100.159 7.944C101.545 8.75467 102.644 9.85333 103.455 11.24C104.265 12.6053 104.671 14.0987 104.671 15.72V20.008C104.671 21.6293 104.265 23.1333 103.455 24.52C102.644 25.8853 101.545 26.9733 100.159 27.784C98.7932 28.5947 97.2998 29 95.6785 29H87.4545V6.728H95.6785ZM103.487 15.72C103.487 14.312 103.135 13.0107 102.431 11.816C101.727 10.6213 100.767 9.672 99.5505 8.968C98.3558 8.264 97.0545 7.912 95.6465 7.912H88.6385V27.816H95.6465C97.0545 27.816 98.3558 27.464 99.5505 26.76C100.767 26.056 101.727 25.1067 102.431 23.912C103.135 22.7173 103.487 21.416 103.487 20.008V15.72ZM111.718 6.728L119.622 18.632L127.462 6.728H128.87L120.198 19.88V29H119.014V19.88L110.31 6.728H111.718Z" fill="black"/>
<path d="M6.48 27.84C7.13333 27.84 7.73333 27.7267 8.28 27.5C8.84 27.26 9.31333 26.9133 9.7 26.46L10.5 27.38C10.0333 27.94 9.45333 28.3667 8.76 28.66C8.06667 28.9533 7.3 29.1 6.46 29.1C5.38 29.1 4.42 28.8733 3.58 28.42C2.74 27.9533 2.08667 27.3133 1.62 26.5C1.15333 25.6867 0.92 24.7667 0.92 23.74C0.92 22.7133 1.14 21.7933 1.58 20.98C2.03333 20.1667 2.65333 19.5333 3.44 19.08C4.22667 18.6267 5.12 18.4 6.12 18.4C7.05333 18.4 7.89333 18.6133 8.64 19.04C9.4 19.4667 10 20.06 10.44 20.82C10.8933 21.58 11.1333 22.4467 11.16 23.42L2.52 25.1C2.78667 25.9533 3.26667 26.6267 3.96 27.12C4.66667 27.6 5.50667 27.84 6.48 27.84ZM6.12 19.62C5.38667 19.62 4.72667 19.7933 4.14 20.14C3.56667 20.4733 3.11333 20.9467 2.78 21.56C2.46 22.16 2.3 22.8533 2.3 23.64C2.3 23.84 2.30667 23.9867 2.32 24.08L9.74 22.64C9.58 21.76 9.17333 21.04 8.52 20.48C7.86667 19.9067 7.06667 19.62 6.12 19.62Z" fill="black"/>
</svg>
