<svg width="53" height="47" viewBox="0 0 53 47" fill="none" xmlns="http://www.w3.org/2000/svg">
<g clip-path="url(#clip0_366_2)">
<path d="M26.4999 2.9375C19.0652 2.9375 13.1119 6.31562 8.77802 10.3363C4.47177 14.3203 1.59174 19.0937 0.229932 22.3709C-0.0737142 23.0961 -0.0737142 23.9039 0.229932 24.6291C1.59174 27.9062 4.47177 32.6797 8.77802 36.6637C13.1119 40.6844 19.0652 44.0625 26.4999 44.0625C33.9346 44.0625 39.8879 40.6844 44.2218 36.6637C48.528 32.6705 51.4081 27.9062 52.7791 24.6291C53.0827 23.9039 53.0827 23.0961 52.7791 22.3709C51.4081 19.0937 48.528 14.3203 44.2218 10.3363C39.8879 6.31562 33.9346 2.9375 26.4999 2.9375ZM13.2499 23.5C13.2499 19.9942 14.6459 16.6319 17.1307 14.1529C19.6156 11.6739 22.9858 10.2813 26.4999 10.2812C30.014 10.2812 33.3842 11.6739 35.8691 14.1529C38.3539 16.6319 39.7499 19.9942 39.7499 23.5C39.7499 27.0058 38.3539 30.3681 35.8691 32.8471C33.3842 35.3261 30.014 36.7188 26.4999 36.7188C22.9858 36.7188 19.6156 35.3261 17.1307 32.8471C14.6459 30.3681 13.2499 27.0058 13.2499 23.5ZM26.4999 17.625C26.4999 20.8654 23.8591 23.5 20.611 23.5C19.9577 23.5 19.332 23.3898 18.7431 23.1971C18.237 23.0318 17.6482 23.3439 17.6666 23.8764C17.6942 24.5098 17.7862 25.1432 17.961 25.7766C19.2216 30.4766 24.0707 33.2672 28.7818 32.0096C33.493 30.752 36.2902 25.9143 35.0296 21.2143C34.0082 17.4047 30.6313 14.8436 26.8772 14.6875C26.3435 14.6691 26.0306 15.2475 26.1963 15.7615C26.3895 16.349 26.4999 16.9732 26.4999 17.625Z" fill="black"/>
</g>
<defs>
<clipPath id="clip0_366_2">
<rect width="53" height="47" fill="white"/>
</clipPath>
</defs>
</svg>
