<svg width="64" height="64" viewBox="0 0 64 64" fill="none" xmlns="http://www.w3.org/2000/svg">
<path d="M50.8344 18.8344C52.3969 17.2719 52.3969 14.7344 50.8344 13.1719C49.2719 11.6094 46.7344 11.6094 45.1719 13.1719L32.0094 26.3469L18.8344 13.1844C17.2719 11.6219 14.7344 11.6219 13.1719 13.1844C11.6094 14.7469 11.6094 17.2844 13.1719 18.8469L26.3469 32.0094L13.1844 45.1844C11.6219 46.7469 11.6219 49.2844 13.1844 50.8469C14.7469 52.4094 17.2844 52.4094 18.8469 50.8469L32.0094 37.6719L45.1844 50.8344C46.7469 52.3969 49.2844 52.3969 50.8469 50.8344C52.4094 49.2719 52.4094 46.7344 50.8469 45.1719L37.6719 32.0094L50.8344 18.8344Z" fill="black"/>
</svg>
