<svg width="38" height="38" viewBox="0 0 38 38" fill="none" xmlns="http://www.w3.org/2000/svg">
<path d="M33.25 9.46829C27.9775 8.94579 22.6733 8.67663 17.385 8.67663C14.25 8.67663 11.115 8.83496 7.98 9.15163L4.75 9.46829M13.4583 7.86913L13.8067 5.79496C14.06 4.29079 14.25 3.16663 16.9258 3.16663H21.0742C23.75 3.16663 23.9558 4.35413 24.1933 5.81079L24.5417 7.86913M29.8458 14.4716L28.8167 30.4158C28.6425 32.9016 28.5 34.8333 24.0825 34.8333H13.9175C9.5 34.8333 9.3575 32.9016 9.18333 30.4158L8.15417 14.4716M16.3558 26.125H21.6283M15.0417 19.7916H22.9583" stroke="#FF0000" stroke-width="2" stroke-linecap="round" stroke-linejoin="round"/>
</svg>
