<svg width="48" height="64" viewBox="0 0 48 64" fill="none" xmlns="http://www.w3.org/2000/svg">
<g clip-path="url(#clip0_413_6)">
<path d="M8 58C6.9 58 6 57.1 6 56V8C6 6.9 6.9 6 8 6H14C14 7.1 14.9 8 16 8H20C21.1 8 22 7.1 22 6H28V16C28 18.2125 29.7875 20 32 20H42V56C42 57.1 41.1 58 40 58H8ZM8 0C3.5875 0 0 3.5875 0 8V56C0 60.4125 3.5875 64 8 64H40C44.4125 64 48 60.4125 48 56V19.3125C48 17.1875 47.1625 15.15 45.6625 13.65L34.3375 2.3375C32.8375 0.8375 30.8125 0 28.6875 0H8ZM14 14C14 15.1 14.9 16 16 16H20C21.1 16 22 15.1 22 14C22 12.9 21.1 12 20 12H16C14.9 12 14 12.9 14 14ZM14 22C14 23.1 14.9 24 16 24H20C21.1 24 22 23.1 22 22C22 20.9 21.1 20 20 20H16C14.9 20 14 20.9 14 22ZM13.2125 30.975L10.2625 41.9875C10.0875 42.6625 10 43.35 10 44.0375C10 48.4375 13.6 52 18 52C22.4 52 26 48.4375 26 44.0375C26 43.35 25.9125 42.65 25.7375 41.9875L22.8 30.9625C22.3375 29.2125 20.75 27.9875 18.9375 27.9875H17.075C15.2625 27.9875 13.675 29.2 13.2125 30.9625V30.975ZM16 42H20C21.1 42 22 42.9 22 44C22 45.1 21.1 46 20 46H16C14.9 46 14 45.1 14 44C14 42.9 14.9 42 16 42Z" fill="black"/>
</g>
<defs>
<clipPath id="clip0_413_6">
<rect width="48" height="64" fill="white"/>
</clipPath>
</defs>
</svg>
