<svg width="48" height="64" viewBox="0 0 48 64" fill="none" xmlns="http://www.w3.org/2000/svg">
<g clip-path="url(#clip0_413_2)">
<path d="M6 56V8C6 6.9 6.9 6 8 6H28V16C28 18.2125 29.7875 20 32 20H42V56C42 57.1 41.1 58 40 58H8C6.9 58 6 57.1 6 56ZM8 0C3.5875 0 0 3.5875 0 8V56C0 60.4125 3.5875 64 8 64H40C44.4125 64 48 60.4125 48 56V19.3125C48 17.1875 47.1625 15.15 45.6625 13.65L34.3375 2.3375C32.8375 0.8375 30.8125 0 28.6875 0H8ZM14.875 30.1375C14.4 28.55 12.725 27.65 11.1375 28.125C9.55 28.6 8.65 30.275 9.125 31.8625L15.125 51.8625C15.5 53.1375 16.675 54 18 54C19.325 54 20.4875 53.125 20.875 51.8625L24 41.4375L27.125 51.8625C27.5 53.1375 28.675 54 30 54C31.325 54 32.4875 53.125 32.875 51.8625L38.875 31.8625C39.35 30.275 38.45 28.6 36.8625 28.125C35.275 27.65 33.6 28.55 33.125 30.1375L30 40.5625L26.875 30.1375C26.5 28.8625 25.325 28 24 28C22.675 28 21.5125 28.875 21.125 30.1375L18 40.5625L14.875 30.1375Z" fill="black"/>
</g>
<defs>
<clipPath id="clip0_413_2">
<rect width="48" height="64" fill="white"/>
</clipPath>
</defs>
</svg>
