<svg width="48" height="64" viewBox="0 0 48 64" fill="none" xmlns="http://www.w3.org/2000/svg">
<g clip-path="url(#clip0_413_10)">
<path d="M6 56V8C6 6.9 6.9 6 8 6H28V16C28 18.2125 29.7875 20 32 20H42V56C42 57.1 41.1 58 40 58H8C6.9 58 6 57.1 6 56ZM8 0C3.5875 0 0 3.5875 0 8V56C0 60.4125 3.5875 64 8 64H40C44.4125 64 48 60.4125 48 56V19.3125C48 17.1875 47.1625 15.15 45.6625 13.65L34.3375 2.3375C32.8375 0.8375 30.8125 0 28.6875 0H8ZM19.3625 29.1625C18.35 27.85 16.4625 27.625 15.15 28.6375C13.8375 29.65 13.6125 31.5375 14.625 32.85L20.2 40L14.6375 47.1625C13.625 48.475 13.85 50.35 15.1625 51.375C16.475 52.4 18.35 52.1625 19.375 50.85L24 44.8875L28.6375 50.8375C29.65 52.15 31.5375 52.375 32.85 51.3625C34.1625 50.35 34.3875 48.4625 33.375 47.15L27.8 40L33.3625 32.8375C34.375 31.525 34.15 29.65 32.8375 28.625C31.525 27.6 29.65 27.8375 28.625 29.15L24 35.1125L19.3625 29.1625Z" fill="black"/>
</g>
<defs>
<clipPath id="clip0_413_10">
<rect width="48" height="64" fill="white"/>
</clipPath>
</defs>
</svg>
