<svg width="48" height="64" viewBox="0 0 48 64" fill="none" xmlns="http://www.w3.org/2000/svg">
<g clip-path="url(#clip0_413_12)">
<path d="M8 58C6.9 58 6 57.1 6 56V8C6 6.9 6.9 6 8 6H28V16C28 18.2125 29.7875 20 32 20H42V56C42 57.1 41.1 58 40 58H8ZM8 0C3.5875 0 0 3.5875 0 8V56C0 60.4125 3.5875 64 8 64H40C44.4125 64 48 60.4125 48 56V19.3125C48 17.1875 47.1625 15.15 45.6625 13.65L34.3375 2.3375C32.8375 0.8375 30.8125 0 28.6875 0H8ZM17 26C15.3375 26 14 27.3375 14 29V42V49C14 50.6625 15.3375 52 17 52C18.6625 52 20 50.6625 20 49V45H25.5C30.75 45 35 40.75 35 35.5C35 30.25 30.75 26 25.5 26H17ZM25.5 39H20V32H25.5C27.4375 32 29 33.5625 29 35.5C29 37.4375 27.4375 39 25.5 39Z" fill="black"/>
</g>
<defs>
<clipPath id="clip0_413_12">
<rect width="48" height="64" fill="white"/>
</clipPath>
</defs>
</svg>
